<?xml version="1.0" encoding="utf-8"?>
<!-- Generator: Adobe Illustrator 27.4.1, SVG Export Plug-In . SVG Version: 6.00 Build 0)  -->
<svg version="1.1" id="Layer_1" xmlns="http://www.w3.org/2000/svg" xmlns:xlink="http://www.w3.org/1999/xlink" x="0px" y="0px"
	 viewBox="0 0 652.4 449.9" style="enable-background:new 0 0 652.4 449.9;" xml:space="preserve">
<style type="text/css">
	.st0{clip-path:url(#SVGID_00000092425883026895780600000009839749216188529317_);}
	.st1{fill:#999999;}
	.st2{fill:none;stroke:#7F7F7F;stroke-width:0.35;stroke-linejoin:round;stroke-miterlimit:10;}
	.st3{fill:none;stroke:#7F7F7F;stroke-width:0.7;stroke-linejoin:round;stroke-miterlimit:10;}
	.st4{fill:#95E3ED;}
	.st5{fill:#304558;}
	.st6{clip-path:url(#SVGID_00000045598572089811311820000016914141130749462942_);}
	.st7{fill:#4D4D4D;}
	.st8{font-family:'ArialMT';}
	.st9{font-size:19.2px;}
	.st10{fill:none;stroke:#666666;stroke-width:0.7;stroke-linejoin:round;stroke-miterlimit:10;}
	.st11{fill:none;}
	.st12{font-size:24px;}
	.st13{fill:#FFFFFF;}
</style>
<g>
	<defs>
		<rect id="SVGID_1_" y="0" width="652.4" height="481.9"/>
	</defs>
	<clipPath id="SVGID_00000036223034502969247570000000730766682178556297_">
		<use xlink:href="#SVGID_1_"  style="overflow:visible;"/>
	</clipPath>
</g>
<g>
	<defs>
		<rect id="SVGID_00000173152699863924825290000002550095651532324261_" x="54.7" y="12" width="585.7" height="334.9"/>
	</defs>
	<clipPath id="SVGID_00000028317648450782562960000005524052192027686546_">
		<use xlink:href="#SVGID_00000173152699863924825290000002550095651532324261_"  style="overflow:visible;"/>
	</clipPath>
	<g style="clip-path:url(#SVGID_00000028317648450782562960000005524052192027686546_);">
		<rect x="54.7" y="12" class="st1" width="585.7" height="334.9"/>
		<line class="st2" x1="54.7" y1="298.5" x2="640.4" y2="298.5"/>
		<line class="st2" x1="54.7" y1="232.3" x2="640.4" y2="232.3"/>
		<line class="st2" x1="54.7" y1="166.2" x2="640.4" y2="166.2"/>
		<line class="st2" x1="54.7" y1="100" x2="640.4" y2="100"/>
		<line class="st2" x1="54.7" y1="33.8" x2="640.4" y2="33.8"/>
		<line class="st2" x1="162.6" y1="346.8" x2="162.6" y2="12"/>
		<line class="st2" x1="316.8" y1="346.8" x2="316.8" y2="12"/>
		<line class="st2" x1="470.9" y1="346.8" x2="470.9" y2="12"/>
		<line class="st2" x1="625" y1="346.8" x2="625" y2="12"/>
		<line class="st3" x1="54.7" y1="331.6" x2="640.4" y2="331.6"/>
		<line class="st3" x1="54.7" y1="265.4" x2="640.4" y2="265.4"/>
		<line class="st3" x1="54.7" y1="199.2" x2="640.4" y2="199.2"/>
		<line class="st3" x1="54.7" y1="133.1" x2="640.4" y2="133.1"/>
		<line class="st3" x1="54.7" y1="66.9" x2="640.4" y2="66.9"/>
		<line class="st3" x1="85.6" y1="346.8" x2="85.6" y2="12"/>
		<line class="st3" x1="239.7" y1="346.8" x2="239.7" y2="12"/>
		<line class="st3" x1="393.8" y1="346.8" x2="393.8" y2="12"/>
		<line class="st3" x1="548" y1="346.8" x2="548" y2="12"/>
		<rect x="196.5" y="307.8" class="st4" width="24.7" height="1.3"/>
		<rect x="227.4" y="313.1" class="st4" width="24.7" height="4"/>
		<rect x="258.2" y="297.2" class="st4" width="24.7" height="14.6"/>
		<rect x="289" y="258.8" class="st4" width="24.7" height="27.8"/>
		<rect x="319.8" y="246.9" class="st4" width="24.7" height="31.8"/>
		<rect x="350.7" y="227" class="st4" width="24.7" height="47.7"/>
		<rect x="381.5" y="200.6" class="st4" width="24.7" height="54.3"/>
		<rect x="412.3" y="164.8" class="st4" width="24.7" height="58.2"/>
		<rect x="443.1" y="109.2" class="st4" width="24.7" height="101.9"/>
		<rect x="474" y="70.9" class="st4" width="24.7" height="116.5"/>
		<rect x="504.8" y="68.2" class="st4" width="24.7" height="140.3"/>
		<rect x="535.6" y="36.4" class="st4" width="24.7" height="116.5"/>
		<rect x="566.5" y="72.2" class="st4" width="24.7" height="119.1"/>
		<rect x="597.3" y="27.2" class="st4" width="24.7" height="266"/>
		<rect x="73.2" y="326.3" class="st5" width="24.7" height="5.3"/>
		<rect x="104.1" y="330.3" class="st5" width="24.7" height="1.3"/>
		<rect x="134.9" y="329" class="st5" width="24.7" height="2.6"/>
		<rect x="165.7" y="322.3" class="st5" width="24.7" height="9.3"/>
		<rect x="196.5" y="309.1" class="st5" width="24.7" height="22.5"/>
		<rect x="227.4" y="317" class="st5" width="24.7" height="14.6"/>
		<rect x="258.2" y="311.8" class="st5" width="24.7" height="19.9"/>
		<rect x="289" y="286.6" class="st5" width="24.7" height="45"/>
		<rect x="319.8" y="278.7" class="st5" width="24.7" height="52.9"/>
		<rect x="350.7" y="274.7" class="st5" width="24.7" height="56.9"/>
		<rect x="381.5" y="254.8" class="st5" width="24.7" height="76.8"/>
		<rect x="412.3" y="223.1" class="st5" width="24.7" height="108.5"/>
		<rect x="443.1" y="211.2" class="st5" width="24.7" height="120.4"/>
		<rect x="474" y="187.3" class="st5" width="24.7" height="144.3"/>
		<rect x="504.8" y="208.5" class="st5" width="24.7" height="123.1"/>
		<rect x="535.6" y="152.9" class="st5" width="24.7" height="178.7"/>
		<rect x="566.5" y="191.3" class="st5" width="24.7" height="140.3"/>
		<rect x="597.3" y="293.2" class="st5" width="24.7" height="38.4"/>
	</g>
</g>
<g>
	<defs>
		<rect id="SVGID_00000004524888934334210140000009842502050381749888_" y="0" width="652.4" height="481.9"/>
	</defs>
	<clipPath id="SVGID_00000157267480605772906620000011117019248490126525_">
		<use xlink:href="#SVGID_00000004524888934334210140000009842502050381749888_"  style="overflow:visible;"/>
	</clipPath>
	<g style="clip-path:url(#SVGID_00000157267480605772906620000011117019248490126525_);">
		<text transform="matrix(1 0 0 1 33.2919 338.49)" class="st7 st8 st9">0</text>
		<text transform="matrix(1 0 0 1 22.6137 272.31)" class="st7 st8 st9">50</text>
		<text transform="matrix(1 0 0 1 11.9356 206.13)" class="st7 st8 st9">100</text>
		<text transform="matrix(1 0 0 1 11.9356 139.95)" class="st7 st8 st9">150</text>
		<text transform="matrix(1 0 0 1 11.9356 73.77)" class="st7 st8 st9">200</text>
		<line class="st10" x1="48.8" y1="331.6" x2="54.7" y2="331.6"/>
		<line class="st10" x1="48.8" y1="265.4" x2="54.7" y2="265.4"/>
		<line class="st10" x1="48.8" y1="199.2" x2="54.7" y2="199.2"/>
		<line class="st10" x1="48.8" y1="133.1" x2="54.7" y2="133.1"/>
		<line class="st10" x1="48.8" y1="66.9" x2="54.7" y2="66.9"/>
		<line class="st10" x1="85.6" y1="352.8" x2="85.6" y2="346.8"/>
		<line class="st10" x1="239.7" y1="352.8" x2="239.7" y2="346.8"/>
		<line class="st10" x1="393.8" y1="352.8" x2="393.8" y2="346.8"/>
		<line class="st10" x1="548" y1="352.8" x2="548" y2="346.8"/>
		<text transform="matrix(1 0 0 1 64.1938 371.35)" class="st7 st8 st9">2005</text>
		<text transform="matrix(1 0 0 1 218.3337 371.35)" class="st7 st8 st9">2010</text>
		<text transform="matrix(1 0 0 1 372.4637 371.35)" class="st7 st8 st9">2015</text>
		<text transform="matrix(1 0 0 1 526.6038 371.35)" class="st7 st8 st9">2020</text>
		<rect x="323.8" y="378.2" class="st11" width="50.7" height="28.4"/>
		<text transform="matrix(1 0 0 1 323.7845 398.79)" class="st8 st12">Year</text>
		<g>
			<rect x="136" y="408" class="st13" width="426.2" height="41.9"/>
			<rect x="160.6" y="420.7" class="st5" width="15.9" height="16.6"/>
			<rect x="353.3" y="420.7" class="st4" width="15.9" height="16.6"/>
			<text transform="matrix(1 0 0 1 183.1594 435.86)" class="st8 st9">Old method alone</text>
			<text transform="matrix(1 0 0 1 375.8094 435.86)" class="st8 st9">Added with DO.utils</text>
		</g>
	</g>
</g>
</svg>
