<?xml version="1.0" encoding="utf-8"?>
<!-- Generator: Adobe Illustrator 27.4.1, SVG Export Plug-In . SVG Version: 6.00 Build 0)  -->
<svg version="1.1" id="Layer_1" xmlns="http://www.w3.org/2000/svg" xmlns:xlink="http://www.w3.org/1999/xlink" x="0px" y="0px"
	 viewBox="0 0 226.8 329" style="enable-background:new 0 0 226.8 329;" xml:space="preserve">
<style type="text/css">
	.st0{fill:#9B5E52;stroke:#000000;stroke-width:3.25;stroke-linecap:square;stroke-miterlimit:10;}
	.st1{fill:#8C58B0;stroke:#000000;stroke-width:3.25;stroke-linecap:square;stroke-miterlimit:10;}
	.st2{fill:#92BC72;stroke:#000000;stroke-width:3.25;stroke-linecap:square;stroke-miterlimit:10;}
	.st3{fill:#FFFFFF;stroke:#000000;stroke-width:3.25;stroke-linecap:square;stroke-miterlimit:10;}
	.st4{fill:#9B5E52;stroke:#000000;stroke-width:4.27;stroke-linecap:square;stroke-miterlimit:10;}
	.st5{fill:#8C58B0;stroke:#000000;stroke-width:4.27;stroke-linecap:square;stroke-miterlimit:10;}
	.st6{fill:#92BC72;stroke:#000000;stroke-width:4.27;stroke-linecap:square;stroke-miterlimit:10;}
</style>
<g>
	<g>
		<rect x="261.9" y="123" style="fill:none;" width="33" height="13"/>
		<text transform="matrix(1 0 0 1 261.8805 132.468)" style="font-family:'ArialMT'; font-size:11px;">source</text>
		<rect x="264" y="141.3" class="st0" width="13" height="13"/>
		<rect x="264" y="158.6" class="st1" width="13" height="13"/>
		<rect x="264" y="175.9" class="st2" width="13" height="13"/>
		<rect x="264" y="193.2" class="st3" width="13" height="13"/>
		<text transform="matrix(1 0 0 1 284.64 150.9576)" style="font-family:'ArialMT'; font-size:8.8px;">ncbi_col</text>
		<rect x="284.6" y="160.7" style="fill:none;" width="31.8" height="10.4"/>
		<text transform="matrix(1 0 0 1 284.6402 168.2375)" style="font-family:'ArialMT'; font-size:8.8px;">pubmed</text>
		<rect x="284.6" y="178" style="fill:none;" width="27.9" height="10.4"/>
		<text transform="matrix(1 0 0 1 284.6402 185.5178)" style="font-family:'ArialMT'; font-size:8.8px;">scopus</text>
		<text transform="matrix(1 0 0 1 284.64 202.7975)" style="font-family:'ArialMT'; font-size:8.8px;">total</text>
	</g>
</g>
<g>
	<rect x="7.9" y="235.9" class="st4" width="31.6" height="78.2"/>
	<rect x="52.5" y="229.9" class="st5" width="31.6" height="84.1"/>
	<rect x="97" y="177.2" class="st6" width="31.6" height="136.8"/>
</g>
<g>
	<g>
		<rect x="167.5" y="235.9" class="st4" width="31.6" height="78.2"/>
		<rect x="167.5" y="151.7" class="st5" width="31.6" height="84.1"/>
		<rect x="167.5" y="14.9" class="st6" width="31.6" height="136.8"/>
	</g>
</g>
</svg>
